<mxfile host="Electron" modified="2023-09-15T19:21:18.784Z" agent="Mozilla/5.0 (Windows NT 10.0; Win64; x64) AppleWebKit/537.36 (KHTML, like Gecko) draw.io/21.2.8 Chrome/112.0.5615.165 Electron/24.2.0 Safari/537.36" etag="3ASM-S6MnEe8s6ft6hfk" version="21.2.8" type="device">
  <diagram name="Page-1" id="W4vNGyYaI7FxQCOn36wm">
    <mxGraphModel dx="1038" dy="608" grid="1" gridSize="10" guides="1" tooltips="1" connect="1" arrows="1" fold="1" page="1" pageScale="1" pageWidth="850" pageHeight="1100" math="0" shadow="0">
      <root>
        <mxCell id="0" />
        <mxCell id="1" parent="0" />
        <mxCell id="eiCj1fGub0zI8uFPpaJ1-1" value="Docker Client (CLI)" style="rounded=1;whiteSpace=wrap;html=1;labelPosition=center;verticalLabelPosition=top;align=center;verticalAlign=bottom;fillColor=none;" vertex="1" parent="1">
          <mxGeometry x="130" y="170" width="120" height="260" as="geometry" />
        </mxCell>
        <mxCell id="eiCj1fGub0zI8uFPpaJ1-2" value="Docker Host" style="rounded=1;whiteSpace=wrap;html=1;labelPosition=center;verticalLabelPosition=top;align=center;verticalAlign=bottom;fillColor=none;" vertex="1" parent="1">
          <mxGeometry x="270" y="170" width="290" height="260" as="geometry" />
        </mxCell>
        <mxCell id="eiCj1fGub0zI8uFPpaJ1-3" value="Dockekr Registry" style="rounded=1;whiteSpace=wrap;html=1;labelPosition=center;verticalLabelPosition=top;align=center;verticalAlign=bottom;fillColor=none;" vertex="1" parent="1">
          <mxGeometry x="580" y="170" width="120" height="260" as="geometry" />
        </mxCell>
        <mxCell id="eiCj1fGub0zI8uFPpaJ1-4" value="Build" style="rounded=1;whiteSpace=wrap;html=1;fillColor=none;" vertex="1" parent="1">
          <mxGeometry x="145" y="190" width="90" height="30" as="geometry" />
        </mxCell>
        <mxCell id="eiCj1fGub0zI8uFPpaJ1-6" value="Run" style="rounded=1;whiteSpace=wrap;html=1;fillColor=none;" vertex="1" parent="1">
          <mxGeometry x="145" y="230" width="90" height="30" as="geometry" />
        </mxCell>
        <mxCell id="eiCj1fGub0zI8uFPpaJ1-7" value="Pull" style="rounded=1;whiteSpace=wrap;html=1;fillColor=none;" vertex="1" parent="1">
          <mxGeometry x="145" y="270" width="90" height="30" as="geometry" />
        </mxCell>
        <mxCell id="eiCj1fGub0zI8uFPpaJ1-8" value="Push" style="rounded=1;whiteSpace=wrap;html=1;fillColor=none;" vertex="1" parent="1">
          <mxGeometry x="145" y="310" width="90" height="30" as="geometry" />
        </mxCell>
        <mxCell id="eiCj1fGub0zI8uFPpaJ1-9" value="etc," style="rounded=1;whiteSpace=wrap;html=1;fillColor=none;dashed=1;" vertex="1" parent="1">
          <mxGeometry x="145" y="350" width="90" height="30" as="geometry" />
        </mxCell>
        <mxCell id="eiCj1fGub0zI8uFPpaJ1-12" value="Developer" style="sketch=0;outlineConnect=0;fontColor=#232F3E;gradientColor=none;fillColor=#232F3D;strokeColor=none;dashed=0;verticalLabelPosition=bottom;verticalAlign=top;align=center;html=1;fontSize=12;fontStyle=0;aspect=fixed;pointerEvents=1;shape=mxgraph.aws4.user;" vertex="1" parent="1">
          <mxGeometry x="30" y="275" width="35" height="35" as="geometry" />
        </mxCell>
        <mxCell id="eiCj1fGub0zI8uFPpaJ1-13" value="Daemon" style="rounded=1;whiteSpace=wrap;html=1;fillColor=none;" vertex="1" parent="1">
          <mxGeometry x="280" y="195" width="80" height="210" as="geometry" />
        </mxCell>
        <mxCell id="eiCj1fGub0zI8uFPpaJ1-14" value="Images" style="rounded=1;whiteSpace=wrap;html=1;fillColor=none;" vertex="1" parent="1">
          <mxGeometry x="370" y="195" width="80" height="165" as="geometry" />
        </mxCell>
        <mxCell id="eiCj1fGub0zI8uFPpaJ1-15" value="Containers" style="rounded=1;whiteSpace=wrap;html=1;fillColor=none;" vertex="1" parent="1">
          <mxGeometry x="460" y="195" width="90" height="85" as="geometry" />
        </mxCell>
        <mxCell id="eiCj1fGub0zI8uFPpaJ1-17" value="Images" style="rounded=1;whiteSpace=wrap;html=1;fillColor=none;" vertex="1" parent="1">
          <mxGeometry x="600" y="187.5" width="80" height="82.5" as="geometry" />
        </mxCell>
      </root>
    </mxGraphModel>
  </diagram>
</mxfile>
